<svg xmlns="http://www.w3.org/2000/svg" viewBox="0 0 100 48"><defs><style>.cls-1{fill:#d7d7d7;}.cls-2{fill:#1f489c;fill-rule:evenodd;}</style></defs><title>logo bank colorful</title><g id="BRI"><path class="cls-1" d="M96,1a3,3,0,0,1,3,3V44a3,3,0,0,1-3,3H4a3,3,0,0,1-3-3V4A3,3,0,0,1,4,1H96m0-1H4A4,4,0,0,0,0,4V44a4,4,0,0,0,4,4H96a4,4,0,0,0,4-4V4a4,4,0,0,0-4-4Z"/><path class="cls-2" d="M25,38.07h-.59V36h1.06c.74,0,1.41.21,1.41.94v.29c0,.71-1.12.88-1.88.88Zm-.59-5.62H25c.71,0,1.58.07,1.58.76v.29c0,.59-.9.82-1.52.82h-.7V32.44ZM22,39.77h3.4c1.89,0,3.87-.47,3.87-2.28V36.9a1.83,1.83,0,0,0-1.76-1.7v-.12A1.93,1.93,0,0,0,29,33.44v-.64c0-1.35-1.37-2.05-2.76-2.05H22v9Z"/><path class="cls-2" d="M48.24,39.77h2.4v-4.1c.44.32,2.65,4.1,2.93,4.1h2.93C56.36,39.21,53,35.16,53,35s2.94-3.7,3.28-4.22l-2.91,0-2.72,3.61V30.74h-2.4v9Z"/><polygon class="cls-2" points="75.62 39.77 78.02 39.77 78.02 30.75 75.62 30.75 75.62 39.77 75.62 39.77"/><path class="cls-2" d="M33.86,32.63h.08l1,3.51H32.7l1.15-3.5ZM29,39.77H31.3c.2,0,.8-1.63.82-1.93H35.4c.37,0,.55,1.93.94,1.93h2.49l-3.43-9H32.53c-.21,0-.82,1.88-.94,2.17-.31.75-.58,1.55-.87,2.29s-.55,1.48-.85,2.25A21.06,21.06,0,0,0,29,39.77Z"/><polygon class="cls-2" points="39.15 39.77 41.37 39.77 41.34 33.66 44.43 39.77 47.42 39.77 47.42 30.75 45.25 30.75 45.21 36.74 42.26 30.75 39.15 30.75 39.15 39.77 39.15 39.77"/><path class="cls-2" d="M69.76,32.44h.76c.66,0,1.58.21,1.58.82v.29c0,.84-1,.94-1.82.94h-.53V32.44Zm-2.4,7.32h2.4V36.19h.53c.91,0,1.24.7,1.47,1.4s.55,1.55.69,2.18h2.46a22.11,22.11,0,0,0-.83-2.45c-.14-.38-.31-.81-.45-1.19-.26-.66-.54-.56-.77-.87a2,2,0,0,0,1.64-1.82v-.64c0-1.51-1.53-2.05-3.11-2.05h-4v9Z"/><path class="cls-2" d="M61.9,35.9h.59c.87,0,1.93.16,1.93,1,0,1-.9,1.17-1.93,1.17H61.9V35.9Zm0-3.46h.88c.76,0,1.41.18,1.41.94s-.83.94-1.52.94H61.9V32.44Zm-2.4,7.32h3.69c1.89,0,3.63-.64,3.63-2.46v-.06a1.9,1.9,0,0,0-1.7-2.05v-.12a2,2,0,0,0,1.47-1.93c0-1.58-1.15-2.4-2.7-2.4H59.5v9Z"/><path class="cls-2" d="M42.79,11.22c0-.64.79-1.23,1.52-1.23H45.9a2.3,2.3,0,0,1,2.23,2.17v.23c0,1.86-3,3.55-3.87,4.86a29.4,29.4,0,0,0,2,2.18c.54.53,1.66,1.55,1.66,2.5v.47A2.38,2.38,0,0,1,46,24.46H44.08a1.45,1.45,0,0,1-1.29-1.17V11.22Zm7.5,1.11A4.56,4.56,0,0,0,50.05,11c-.13-.35-.54-.85-.58-1h1.58a2.24,2.24,0,0,1,2.17,1.87v.53c0,1.28-4.22,4.3-4.22,4.86l3.53,3.62,1.79,1.79c.34.34,1.51,1.5,1.71,1.8H49.59a3.37,3.37,0,0,0,.82-2.11v-.29a4.09,4.09,0,0,0-1.48-2.68c-.4-.42-1.69-1.89-2-2.12,1-1.42,3.4-2.45,3.4-4.8v-.12Zm4.92-.41c0-1-.57-1.39-.94-1.93,1.58,0,2.47-.17,2.9,1.09A19.56,19.56,0,0,1,57.27,15v8l-5.64-5.73c.88-1.31,3.59-2.74,3.59-4.64v-.64ZM41,11.57v11.6a3.27,3.27,0,0,0,3.17,3.1h12A3.29,3.29,0,0,0,59,23.11V11.22a3.24,3.24,0,0,0-3.17-3H44.14A3.22,3.22,0,0,0,41,11.57Z"/></g></svg>