<svg xmlns="http://www.w3.org/2000/svg" viewBox="0 0 100 48"><defs><style>.cls-1{fill:#d7d7d7;}.cls-2,.cls-8{fill:#0076bc;}.cls-3,.cls-7{fill:none;stroke-miterlimit:2.61;stroke-width:0.03px;}.cls-3{stroke:#0076bc;}.cls-4{fill:#f8c520;}.cls-4,.cls-5,.cls-6,.cls-8{fill-rule:evenodd;}.cls-5,.cls-9{fill:#ec2029;}.cls-10,.cls-6{fill:#fff;}.cls-7{stroke:#fff;}</style></defs><title>logo bank colorful</title><g id="Indomaret"><path class="cls-1" d="M96,1a3,3,0,0,1,3,3V44a3,3,0,0,1-3,3H4a3,3,0,0,1-3-3V4A3,3,0,0,1,4,1H96m0-1H4A4,4,0,0,0,0,4V44a4,4,0,0,0,4,4H96a4,4,0,0,0,4-4V4a4,4,0,0,0-4-4Z"/><rect class="cls-2" x="11.26" y="20.04" width="77.47" height="7.95"/><rect class="cls-3" x="11.26" y="20.04" width="77.47" height="7.95"/><path class="cls-4" d="M88.74,28.79v5.89a1.9,1.9,0,0,1-1.88,1.92H13.15a1.9,1.9,0,0,1-1.88-1.92V28.79Z"/><path class="cls-5" d="M13.15,11.41H86.85a1.9,1.9,0,0,1,1.88,1.92v5.91H11.26V13.33A1.9,1.9,0,0,1,13.15,11.41Z"/><path class="cls-6" d="M50.54,12.71c4.26,0,29.2,1.21,29,6.76-.11,2.75.11,6.15,0,8.9-.22,5.39-23.69,7.2-29.22,7.17-9.82-.05-29.74-2.05-29.83-7.17-.05-2.75,0-6.49,0-9.24C20.47,14.25,43.77,12.66,50.54,12.71Z"/><path class="cls-7" d="M50.54,12.71c4.26,0,29.2,1.21,29,6.76-.11,2.75.11,6.15,0,8.9-.22,5.39-23.69,7.2-29.22,7.17-9.82-.05-29.74-2.05-29.83-7.17-.05-2.75,0-6.49,0-9.24C20.47,14.25,43.77,12.66,50.54,12.71Z"/><path class="cls-5" d="M50.43,14.12c5.25,0,27.72,2.33,27.51,5.17-.17,2.38.18,7,0,9.37-.21,2.76-22.42,5.17-27.65,5.13-5.64,0-28.14-1.91-28.23-5.38-.06-2.38,0-6.47,0-8.86,0-3.54,22.65-5.48,28.37-5.43Zm0,2.17c-5.4,0-26.79,1.26-26.79,4,0,1.86-.06,5.53,0,7.39.09,2.77,21.34,3.88,26.66,3.91,4.94,0,25.91-1.57,26.11-3.71.17-1.85-.16-5.87,0-7.72C76.57,18,55.36,16.33,50.4,16.29Z"/><path class="cls-8" d="M41.47,24.26c.28.12.22.79-.12,1.49s-.84,1.16-1.12,1-.22-.79.12-1.49.84-1.16,1.12-1Zm18.7.06c.28.12.22.79-.12,1.49s-.84,1.16-1.12,1-.22-.79.12-1.49.84-1.16,1.12-1Zm9.18-.2c.15.11,0,.55-.3,1s-.7.67-.85.56,0-.55.3-1,.7-.67.85-.56Zm.19-.9a2.23,2.23,0,0,0-2.12,1.37,2.93,2.93,0,0,0-.17,2.07,2.79,2.79,0,0,1-1.28.58.37.37,0,0,1-.46-.37,5.59,5.59,0,0,1,.24-1.65c.07-.23.31-.15.39-.35.17-.4.19-.8-.35-.73-.34,0-.72.09-.73-.37s.54-.7.46-.74c-.31-.15-.56,0-.88-.11-.09,0,0-.24-.11-.27a.47.47,0,0,0-.41.2,3.92,3.92,0,0,0-.26.73,4.28,4.28,0,0,0-.16.74,6.21,6.21,0,0,1-2,2.4c-.44.22-.71,0-.58-.43.18-.61.78-2.09,1.17-3.13l-1.1,0c0,.13-.11.22-.15.36-.85-.55-1.37-.34-2.15.22a3.85,3.85,0,0,0-1.35,1.79,2.86,2.86,0,0,0-.18.88,3.14,3.14,0,0,1-1.36.36c-.1,0-.17-.17-.15-.27.14-.61.44-1.17.62-1.77a2.54,2.54,0,0,0,.27-1.14c-.1-.52-.76-.53-1.12-.35s-.54.44-.85.6a.2.2,0,0,1-.2,0c-.13-.12-.19-.3-.32-.42a.89.89,0,0,0-.4-.25,1,1,0,0,0-.57,0c-.37.16-.64.58-1,.62-.17,0-.06-.36-.17-.5-.27-.33-.53-.21-.85-.07-.68.3-1.36.61-2,.92.07.12.12.27.18.39.28-.09.57-.22.86-.29.12,0,.27-.09.37,0a.3.3,0,0,1,.1.32c-.35,1.14-.83,2.24-1.24,3.36l1.29,0a26.86,26.86,0,0,1,1.17-3,.53.53,0,0,1,.55-.2c.13,0,.18.22.2.35a1,1,0,0,1,0,.5c-.27.8-.61,1.57-.92,2.36.47,0,1,0,1.44,0a32.37,32.37,0,0,1,1.19-3.11c.07-.12.44-.16.57-.12s.19.13.17.22c-.12.56-.43,1.06-.57,1.62a1.56,1.56,0,0,0,0,.8.87.87,0,0,0,.42.52.72.72,0,0,0,.57,0c.67-.28,1.29-.66,1.93-1a1.18,1.18,0,0,0,1.61,1,4,4,0,0,0,.85-.45.72.72,0,0,0,1.09.49,7.46,7.46,0,0,0,3.28-3.1,4.33,4.33,0,0,0,.67-.06c-.18.54-1.29,2.49-.13,3.07a1.3,1.3,0,0,0,.93,0A3.48,3.48,0,0,0,67.39,27a1.59,1.59,0,0,0,1,.83,4,4,0,0,0,2.65-.5,1.57,1.57,0,0,0,1.79.53,4.85,4.85,0,0,0,1.51-1,.28.28,0,0,0,0-.37c-.09-.08-.23.06-.33.13-.39.29-1.16,1-1.6.41-.2-.27-.07-.74.13-1.26s.37-1.17.56-1.69c.26,0,.56,0,.82,0,.11-.32.16-.58.28-.9-.18,0-.42,0-.6,0a19.06,19.06,0,0,1,.82-2.59l-1.15,0a24.11,24.11,0,0,1-.9,2.49l-.81,0-.21.94.69,0a7.24,7.24,0,0,1-1.11,2.62,1.48,1.48,0,0,1-.89.49c-1,.21-1.41-.12-1.57-.58a13.07,13.07,0,0,0,1.24-.93c.62-.65,1.38-2.36-.14-2.48ZM34.28,19.4c-1.61.19-4,.36-5.36,1.26a1.81,1.81,0,0,0-.8,2.57,1.52,1.52,0,0,0,2.47-.09c-.58-.08-1-.18-1.08-.6-.17-1.89,1.57-1.5,3.23-2-.86,2-1.64,5.68-3.84,6.13a2.08,2.08,0,0,1-2.7-1.37c-.89,1.71.38,2.48,1.52,2.66a4.06,4.06,0,0,0,3.14-1.27,11.35,11.35,0,0,0,1.53-1.18c.13-.12,1.88-1.46,1.72-.35a16.9,16.9,0,0,1-.82,2.64l1.29,0c.31-.94.55-1.9.94-2.81a.56.56,0,0,1,.42-.3c.16,0,.39,0,.45.17a1.5,1.5,0,0,1-.12.87c-.12.44-.79,1.89.08,2a3.51,3.51,0,0,0,2.32-.92,1.31,1.31,0,0,0,.75,1,1.63,1.63,0,0,0,1,0,3.4,3.4,0,0,0,.75-.39c0,.62.55.55,1,.36a19.26,19.26,0,0,1,2-.94l-.1-.36a5.06,5.06,0,0,1-1.42.31c-.15,0-.19-.29-.14-.43.64-1.91,1.44-3.76,2.17-5.64l-1,0c-.3.8-.68,1.63-1,2.43A3.16,3.16,0,0,0,39,25.1a3.18,3.18,0,0,0-.36,1.24,3.29,3.29,0,0,1-1,.52c-.14,0-.25-.18-.22-.33a8.69,8.69,0,0,1,.41-1.39c.11-.31.51-1.22.36-1.52a.7.7,0,0,0-1-.37c-.49.2-1,.66-1.27.57s-.28-.74-.87-.68a1.72,1.72,0,0,0-.54.18A27.47,27.47,0,0,0,32,24.85,52.59,52.59,0,0,0,34.28,19.4Z"/><path class="cls-9" d="M46.68,22.49h0a2.9,2.9,0,0,1,2.05.85h0a2.9,2.9,0,0,1,.85,2.05h0a2.9,2.9,0,0,1-.85,2.05h0a2.89,2.89,0,0,1-2.05.85h0a2.91,2.91,0,0,1-2.9-2.9h0a2.91,2.91,0,0,1,2.9-2.9Z"/><path class="cls-9" d="M46.68,22.85h0a2.56,2.56,0,0,0-2.55,2.55h0a2.56,2.56,0,0,0,2.55,2.55h0a2.54,2.54,0,0,0,1.8-.75h0a2.54,2.54,0,0,0,.75-1.8h0a2.54,2.54,0,0,0-.75-1.8h0a2.54,2.54,0,0,0-1.8-.75Z"/><path class="cls-10" d="M46.68,23.14h0a2.26,2.26,0,0,0-2.25,2.25h0a2.26,2.26,0,0,0,2.25,2.25h0A2.25,2.25,0,0,0,48.28,27h0a2.25,2.25,0,0,0,.66-1.59h0a2.25,2.25,0,0,0-.66-1.59h0a2.25,2.25,0,0,0-1.59-.66Z"/><path class="cls-9" d="M46.68,23.5h0a1.9,1.9,0,0,0-1.9,1.9h0a1.9,1.9,0,0,0,1.9,1.9h0A1.9,1.9,0,0,0,48,26.74h0a1.9,1.9,0,0,0,.56-1.34h0A1.9,1.9,0,0,0,48,24.05h0a1.89,1.89,0,0,0-1.34-.56Z"/><path class="cls-9" d="M46.68,23.77h0a1.63,1.63,0,0,0-1.63,1.63h0A1.63,1.63,0,0,0,46.68,27h0a1.63,1.63,0,0,0,1.62-1.63h0a1.63,1.63,0,0,0-1.63-1.62Z"/><path class="cls-10" d="M46.68,24.13h0a1.27,1.27,0,0,0-1.27,1.27h0a1.27,1.27,0,0,0,1.27,1.27h0A1.27,1.27,0,0,0,48,25.4h0a1.27,1.27,0,0,0-1.27-1.27Z"/></g></svg>